<?xml version="1.0" encoding="utf-8"?>
<!-- Generator: Adobe Illustrator 23.0.6, SVG Export Plug-In . SVG Version: 6.00 Build 0)  -->
<svg version="1.1" id="katman_1" xmlns="http://www.w3.org/2000/svg" xmlns:xlink="http://www.w3.org/1999/xlink" x="0px" y="0px"
	 viewBox="0 0 1920 1080" style="enable-background:new 0 0 1920 1080;" xml:space="preserve">
<style type="text/css">
	.st0{fill-rule:evenodd;clip-rule:evenodd;fill:#F9AB3E;}
</style>
<g>
	<path class="st0" d="M241.4,123.6c0.3-0.5,1.8,0.8,1.2,1.7C242.3,125.8,240.8,124.5,241.4,123.6z"/>
	<path class="st0" d="M242.6,164c0.3-0.5,1.8,0.8,1.2,1.7C243.5,166.1,242,164.8,242.6,164z"/>
	<path class="st0" d="M247.4,165.7c-0.9-0.4-2.4,0-2.4-1.7C245.9,164.4,247.4,164,247.4,165.7z"/>
	<path class="st0" d="M785.1,174.1c-0.9-0.4-2.4,0-2.4-1.7C783.7,172.8,785.1,172.4,785.1,174.1z"/>
	<path class="st0" d="M571.2,155.6c-0.3,0.5-1.8-0.8-1.2-1.7C570.4,153.4,571.8,154.7,571.2,155.6z"/>
	<path class="st0" d="M555.7,155.6c-2.5-1-8.3,2.7-7.2-3.4C551.7,152.2,555.6,151.3,555.7,155.6z"/>
	<path class="st0" d="M805.4,184.1c0.3-0.5,1.8,0.8,1.2,1.7C806.3,186.3,804.8,185,805.4,184.1z"/>
	<path class="st0" d="M793.5,185.8c-0.3,0.5-1.8-0.8-1.2-1.7C792.6,183.7,794.1,185,793.5,185.8z"/>
	<path class="st0" d="M791.1,167.3C798.8,165.4,793.7,172.5,791.1,167.3L791.1,167.3z"/>
	<path class="st0" d="M776.8,185.8C784.4,183.9,779.4,191,776.8,185.8L776.8,185.8z"/>
	<path class="st0" d="M768.4,169c0.9,0.4,2.4,0,2.4,1.7C769.9,170.3,768.4,170.7,768.4,169z"/>
	<path class="st0" d="M253.4,127c0.1-2,0.4-4,2.4-3.4c3.6,0,5,3,6,6.7c-6.2-5.6-18,6.2-17.9-6.7C248.5,122.7,250.7,125.1,253.4,127z
		"/>
	<path class="st0" d="M785.1,169c-0.9-0.4-2.4,0-2.4-1.7C783.7,167.7,785.1,167.4,785.1,169z"/>
	<path class="st0" d="M547.3,155.6c-6.1-0.9-15.4,2.6-17.9-3.4C535.8,152.7,544.2,150.5,547.3,155.6z"/>
	<path class="st0" d="M518.6,162.3c0.3-0.5,1.8,0.8,1.2,1.7C519.5,164.4,518,163.2,518.6,162.3z"/>
	<path class="st0" d="M518.6,152.2c1.6,0,3.2,0,4.8,0c1.4,0.3,3.4-0.3,3.6,1.7C524.5,152.9,519.2,156,518.6,152.2z"/>
	<path class="st0" d="M956,165.7c-1.5,2.3-5.9,2.6-6-1.7C951.8,164.9,956.2,162,956,165.7z"/>
	<path class="st0" d="M289.2,128.7C281.3,132.2,280.8,122.7,289.2,128.7L289.2,128.7z"/>
	<path class="st0" d="M276.1,113.6c0.3-0.5,1.8,0.8,1.2,1.7C276.9,115.7,275.4,114.4,276.1,113.6z"/>
	<path class="st0" d="M273.7,162.3c1.8,0.3,4.4-0.6,4.8,1.7C276.7,163.7,274,164.6,273.7,162.3z"/>
	<path class="st0" d="M280.8,128.7c-1.5,2.3-5.9,2.6-6-1.7C276.6,127.9,281,125,280.8,128.7z"/>
	<path class="st0" d="M1328.9,179.1c0.3-0.5,1.8,0.8,1.2,1.7C1329.7,181.2,1328.2,180,1328.9,179.1z"/>
	<path class="st0" d="M1321.7,180.8C1318,185.4,1324.9,175.7,1321.7,180.8L1321.7,180.8z"/>
	<path class="st0" d="M1570.2,152.2c-0.3,0.5-1.8-0.8-1.2-1.7C1569.4,150.1,1570.9,151.3,1570.2,152.2z"/>
	<path class="st0" d="M1327.7,180.8c-0.3,0.5-1.8-0.8-1.2-1.7C1326.8,178.6,1328.3,179.9,1327.7,180.8z"/>
	<path class="st0" d="M1330,184.1c-0.3,0.5-1.8-0.8-1.2-1.7C1329.2,182,1330.7,183.3,1330,184.1z"/>
	<path class="st0" d="M976.3,164c-5.2-1.1-13.5,2.2-16.7-1.7c1.8-1.5,2.6-0.1,6,0C970.5,162.4,981.7,161.5,976.3,164z"/>
	<path class="st0" d="M266.5,162.3c1.2,0,2.4,0,3.6,0C277,162.3,266.2,166.8,266.5,162.3z"/>
	<path class="st0" d="M830.5,184.1c-0.3,0.5-1.8-0.8-1.2-1.7C829.7,182,831.2,183.3,830.5,184.1z"/>
	<path class="st0" d="M816.2,167.3c-0.3,0.5-1.8-0.8-1.2-1.7C815.3,165.2,816.8,166.5,816.2,167.3z"/>
	<path class="st0" d="M626.2,155.6c-3.2,0-6.4,0-9.6,0c-14.2-1.2-24.8,2.8-35.8-1.7c13.8-2.9,19.6,0.6,37,0
		C620.3,154.9,625.7,151.8,626.2,155.6z"/>
	<path class="st0" d="M657.3,174.1c-0.9-0.4-2.4,0-2.4-1.7C655.8,172.8,657.2,172.4,657.3,174.1z"/>
	<path class="st0" d="M806.6,165.7C814.3,163.7,809.3,170.8,806.6,165.7L806.6,165.7z"/>
	<path class="st0" d="M958.4,164c-0.3,0.5-1.8-0.8-1.2-1.7C957.5,161.8,959,163.1,958.4,164z"/>
	<path class="st0" d="M229.5,165.7c2.1,0.1,3.7-0.4,4.8-1.7C236.2,168.7,229.1,168.6,229.5,165.7z"/>
	<path class="st0" d="M605.9,147.2c3.2,1.6,2.8-10.4,6-3.4c-2.2-0.1-2.5,1.3-1.2,3.4c-3.9,2.5-10.6,2.4-12-3.4
		c0.8-1.3,6.7-3.7,7.2,0C604.7,143.8,604.4,146.8,605.9,147.2z"/>
	<path class="st0" d="M0,177.9L0,1080h1920V34.3c-8.6-0.3-16.9-0.1-24.7,5.3c-9.3-1.3-15.2,2.2-23.9,1.7c-0.1,2.9,0.3,5.2,1.2,6.7
		c-7.3,0.4-8,10-12,15.1c-4.4,0.5-8.2,1.9-9.6,6.7c0.5,4-2.2,3.7-1.2,8.4c3.6,3.4,16.1,3.1,14.3,8.4c-9.1-3.8-22.7-7.1-33.5-3.4
		c-7.3,0.3-16.7-2.1-17.9,6.7c-0.1,5.7,7.3,1,7.2,6.7c-4.6,1.3-7.4,5.3-10.8,8.4c-1.9,7.9-5.3,13.8-7.2,21.8
		c-9.7,11.1-18.6,23.1-35.9,23.5c-2.3,0.7-3,3.6-6,3.4c-6.4,0-12.7,0-19.1,0c-1.6,1.7-4.4,1.6-6,3.4c-4.7-4.4-11.3,3.1-15.5,5
		c4.8,3.9,14,1.6,17.9,6.7c-8.9,2.1-10.9,13.8-21.5,13.5c-0.7-2.4,1.4-8.7-1.2-8.4c-1.6,4.5-2.6,9.8-8.4,8.4
		c-3.3-1.5,2.3-6.2-2.4-6.7c-6.5-8.1-17.4-9.6-28.7-6.7c-4.7,4.1-13.6,2.1-16.7,8.4c-3.4,1.4-3.1-2.4-6-1.7
		c-3,6.4-9.3,8.3-15.5,10.1c-1.9-0.2-0.9-4.3-3.6-3.4c-3.4,2-7.9,2.3-9.6,6.7c-3.8,0.8-2.7-5.2-7.2-3.4c-5.1-1-7.9,1.2-11.9,1.7
		c-6.4,0-12.7,0-19.1,0c-39.3,12.4-88.8,13.1-133.1,10.2c-0.6,0.2-1.3,0.2-1.9-0.1c0.6,0,1.3,0.1,1.9,0.1c2.6-0.7,4.8-4.4,2.9-5.2
		c-2.4,0-4.8,0-7.2,0c-2.3-3.4-3.7-8.2-8.4-8.4c-6.7,4-14.7,6.2-22.7,8.4c-3.7,2,0.6,4.9-3.6,5c-2.1-0.4-6,1.7-4.8-3.4
		c-2.7,0.5-4.5-0.4-4.8-3.4c2.5-1,7.8,2.1,8.4-1.7c-4.9,0.8,1.6-5.2-4.8-3.4c-1.9-1.9-2.5-5.5-6-5c-4.1-1.3-4.6,2.5-8.4,1.7
		c-5.2,1.4-8.1-3.6-9.6,1.7c-0.1-2.8-0.5-3-2.4-3.4c-9-1.9-23.4,1.6-32.3-1.7c-3.7,1.6-3.7,8.2-8.4,8.4c-9.2,0.9-23.3-0.5-34.7,1.7
		c-5-6.5-14.8-6-21.5-10.1c-39.7,1-82.8,12.9-122.5,3.8c-0.5,0-1.1-0.1-1.8-0.4c0.6,0.1,1.2,0.3,1.8,0.4c4.4,0.2,3-7.8,7.8-7.1
		c5.4-1.4,15,3.2,16.7-3.4c-8-2.7-9.5-0.4-17.9,0c-1.5-4.2,0.6-5.3-1.2-6.7c-4.1-0.7-6.7,0.7-9.6,1.7c-4.5-3.7-11.7-3.7-14.3-1.7
		c-0.8-2.3-2.6-3.1-4.8-3.4c-14.7,0-29.5,0-44.2,0c-2.7,1.3-4.7,3.5-8.4,3.4c-4.5,0.1-7.6-1.7-10.8-3.4c-7.8,4.1-21.7-0.3-29.9,3.4
		c-3.8,0.8-4.2-3-8.4-1.7c-20.6,5.8-39.6,2.2-58.6,5c-18.7,2.8-38.5,4.6-56.2,3.4c-3.7,2-8,3.4-12,5c-13.3,0.9-23.5,5.2-32.3,1.7
		c-2.3,0.7-2.2,4.8-6,3.4c-1.9-0.2-0.9-4.3-3.6-3.4c-2.2,1.4-3.3,4.3-6,5c-8,1.5-13.5-3.5-17.9,1.7c-3.7,0.2-3.4-5.3-8.4-3.4
		c0,2.2,2.1,1.5,2.4,3.4c-4.6-0.3-8.8-0.1-12,1.7c-3.7,1.3-2.3-4.6-6-3.4c0.3,2.1,1.9,3.4-1.2,3.4c-9-0.2-19.2,1.3-25.1-3.4
		c-0.1,2.3,0.6,3.7,1.2,5c-2.9-1-8.7,2.1-9.6-1.7c1.8-0.3,4.4,0.6,4.8-1.7c-4.8-3.9-4.7,4.5-10.8,3.4c-4.4,1.4-8.1-1.7-11.9-1.7
		c-2.9,0-5.8,2.1-8.4,1.7c-3-0.5-4.9-5.2-8.4-3.4c0.4,6.2-10,4.5-15.5,1.7c0.5,2.7-4.5,5.6-4.8,1.7c1.4-0.3,3.4,0.3,3.6-1.7
		c-7.2,0-14.3,0-21.5,0c0.8,4.2-5.1,7.1-6,3.4c2.7,0.5,4.5-0.4,4.8-3.4c-4,1.9-9.9,4.4-11.9,0c-2.8,3.9-10.7,0.6-15.5,1.7
		c-2.3-0.4-2.6,1.9-4.8,1.7c-2.4-4-4.7,2.3-7.2-1.7c-0.8,5.5-3.4,5.9-4.8,6.7c-7.6-0.2-14.3,0.9-16.7,0c-1.1-0.4-1.5,1.6-2.4,1.7
		c-2.6,0.1-9.7-1-14.3,0c-1.6,0.3-1.7,1.5-3.6,1.7c-28.7,2.3-61.1,4.8-83.6,3.4c-1.4,1.9-4.2,1.9-7.2,1.7c-9.2-3-13.2-2.8-23.9-3.4
		c-8.1-3.7-15.9-7.9-26.3-8.4c-1.9,0.1-0.9,4.3-3.6,3.4c-8.5-2.4-12.6-6.7-20.3-6.7c0,2.2,2.1,1.5,2.4,3.4c-4.4,0-8.8,0-13.1,0
		c0.4-4.5-6.7,1.6-4.8-5c5.7-2.4,10.8,4.8,14.3,0c-1.4-0.6-7.9-2-4.8-3.4c3.5-0.4,3.7,3.8,7.2,3.4c16.7-2.6,28.5,6.5,41.8-1.7
		c-3.4,0.3-6.1-0.4-7.2-3.4c5.9,0.7,16.1,4.2,21.5,0c-1.3-0.4-1.9-1.9-2.4-3.4c3.8-1.5,1.6,5.5,4.8,5c1.2-4.7,5.5-0.2,6,1.7
		c-0.2-3.7,1-5.3,3.6-5c4.2,3.8,8.5,0.4,11.9,0c14.4-1.7,27.8,3.6,35.9-3.4c13.6-0.3,27.4,6.7,37-1.7c-7.4,0.9-13-0.8-17.9-3.4
		c-4.4,4-14.6-0.4-19.1,3.4c-14.9-4.3-32.2,0.1-46.6-1.7c-2.9,0.7-2.6-3.1-6-1.7c-13-0.6-21.3,2.2-32.3-1.7
		c-9.3,1.6-24.7-1.4-37,3.4c-3.4-1.4-7.4-2-10.8-3.4c-2.8,1.9-1.6,4.1-4.8,5c-2,0.6-11.1-5.4-12,0c7.7,3.2,17,4,23.9,8.4
		c-14.1-1-24.7-6.8-34.7-13.4c-32.9-0.5-50.8-1-82.5,0c-2.3-0.7,2-4.8-3.6-3.4c-5.4-1.3,1.8,4.6-3.6,3.4c-4.9-4.6-12,3.3-13.2-5
		c2.9-2.7,7.9-2.3,9.6-6.7c-12.4,2.7-28.2,0.6-39.4,5c-1.6-1.7-4.4-1.6-6-3.4c-1.2,2.2-1.1,6.2-3.6,6.7c-3.6-3.9-9.4,3.5-14.3,3.4
		c-7.2,0-14.7,0.5-20.3-1.7c-0.2,2.5-2.9,1.5-4.8,1.7c0.3,2.1,1.9,3.4-1.2,3.4c-13,1.8-26.3,3.3-40.6,3.4c-2.8,2.2-2.2-0.2-6,1.7
		c-9.6,0-19.1,0-28.7,0c-12.3,1.9-48.4,4-59.7-1.7c7.6-2.2,18.1-0.3,22.7-6.7c3.5-0.3,8.4,4.9,9.6-1.7c-5.1,1-7.9-1.2-11.9-1.7
		c-18.4,1.8-27.8-4-38.2,1.7c-13.8-4.2-36.5,0.3-44.2-3.4c-7.2,0-14.3,0-21.5,0c-0.7,0-1.4-1.4,0-1.7c1.6,0,3.2,0,4.8,0
		c4.8,0,9.6,0,14.3,0c45.9,1.9,100.3,0.5,147-3.4c5.6,2,11.4-2.2,13.2-1.7c0.5,0.1-0.2,2.1,1.2,1.7c0.3-0.1-0.9-2.7-1.2-3.2
		c0,0-0.1,0,0-0.1c0,0,0,0.1,0,0.1c0.3,0,2.6-1.8,2.4-1.8c0,0,0,0-0.1,0c0,0,0.1,0,0.1,0c2.5-1.3,6,2.5,8.3-1.6
		c-12.3,1.5-27.5-2.2-40.6,1.7c-2.1-2-7-0.3-8.4-3.4c5.7-2-5.7-5.7-6-10.1c1-6.9,9.7-3.1,13.1-6.7c-4.7,0.3,0.4-2.6-2.4-5
		c6.9,0.2,13.3-0.3,17.9-3.4c2.8,0,3.5,2.9,7.2,1.7c1.6,0,3.2,0,4.8,0c1.3-0.1,3,0.8,1.2,1.7c-2.1,1-7-2-7.2,1.7c4,0,8,0,11.9,0
		c3-1.4,10.3,3.3,9.6-3.4c-4.8-3.3-8.8-7.8-16.7-6.7c-2.9-2.3-0.7-3.4-2.4-5c-9-3.6-20.3-0.6-31.1,1.7c-1.9-0.2-0.9-4.3-3.6-3.4
		c-24-0.9-51.2,2.6-71.7-3.4c-2,2.8-7,1.3-10.8,1.7c-2.4,1.7-1.9,7.4-6,6.7c-2.9-2.2,2.2-5.1-1.2-6.7c-16.7-1-35.1-7.1-46.6-10.1
		c1.8-0.4,0.2-2.8-1.2-3.4C14.1,99.8,7,99.2,0,97.9l0,8.9c0,0,0,0.1,0,0.1c0,0,0,0,0,0l0,24.8c3.5,1.3,7.3,2.3,10.8,3.8
		c1.5-0.5,7.4,0.3,3.6,1.7c-2.1,0.4-6-1.7-4.8,3.4c-2.8-0.5-4.5-2.7-8.4-1.7c0,2.2,0,4.5,0,6.7c-0.4,0-0.8,0.1-1.2,0.1l0,1.7
		c0,0,0,0,0,0c0.3-0.5,1.8,0.8,1.2,1.7c-0.2,0.3-0.9-0.1-1.2-0.7l0,22.3c4.2,1.6,8.2,3.4,12,5.3c4.4,1.1,11.9-2.2,14.3,1.7
		C17.8,178.1,9.1,178.1,0,177.9z M3.6,108.5c-0.3,0.5-1.8-0.8-1.2-1.7C2.7,106.4,4.2,107.7,3.6,108.5z M15.6,105.2
		c-0.9-0.4-2.4,0-2.4-1.7C14.1,103.9,15.5,103.5,15.6,105.2z M164.9,120.3c1.4,0.3,3.4-0.3,3.6,1.7
		C167.1,121.7,165.1,122.3,164.9,120.3z M154.2,130.4c1.2,0,2.4,0,3.6,0c1.4,0.3,3.4-0.3,3.6,1.7
		C159.2,131.1,154.3,134.1,154.2,130.4z M151.8,152.2c0.9,0.4,2.4,0,2.4,1.7C153.2,153.5,151.8,153.8,151.8,152.2z M149.4,152.2
		c0.3-0.5,1.8,0.8,1.2,1.7C150.3,154.4,148.8,153.1,149.4,152.2z M70.5,147.2c10.5,1.6,20.2,6,31.1,3.4c-0.7,0-1.4-1.4,0-1.7
		c0.8,5,2.6-1.6,4.8,0c2.4,4.1,11.9-5.8,13.1,1.7c-6.3-1.4-0.5,3.6-3.6,6.7c-9.8,0.9-16.2-3-26.3-1.7c-2.4-3.8-10.7,0.5-13.1-3.4
		c0.4,2-3.4,5.8-3.6,1.7C76.5,151.9,68.5,152.4,70.5,147.2z M25.1,142.1c4.4,0,8.8,0,13.1,0c0.1,1,0.2,2,1.2,1.7
		c5.5,0.1,11.8-0.9,14.3,3.4c-9.4,0.2-17.2-2.5-22.7-3.4c-2,0-4,0-6,0C23.1,144.2,22.1,141.9,25.1,142.1z M14.4,164
		c-3.8,1.9-3.2-0.5-6,1.7c-2.5-1-8.3,2.7-7.2-3.4C5.2,163.4,12.3,160.1,14.4,164z M17.9,148.9c-6.2,2-7-3.6-9.6-6.7
		C13.3,142,17.8,142.4,17.9,148.9z M19.1,140.5c0.9,0.4,2.4,0,2.4,1.7C20.6,141.8,19.2,142.1,19.1,140.5z M455.3,177.4
		c-0.3,0.5-1.8-0.8-1.2-1.7C454.4,175.3,455.9,176.6,455.3,177.4z M537.8,175.7c0.9,0.4,2.4,0,2.4,1.7
		C539.2,177,537.8,177.4,537.8,175.7z M497.1,180.8c0.3-0.5,1.8,0.8,1.2,1.7C498,182.9,496.5,181.7,497.1,180.8z M478,174.1
		c1.7,0.9,6.2-2,6,1.7C482.2,178.4,479.1,177,478,174.1z M1866.6,85c0.3-0.5,1.8,0.8,1.2,1.7C1867.5,87.1,1866,85.9,1866.6,85z
		 M1805.7,367.3c0.9,0.4,2.4,0,2.4,1.7C1807.1,368.6,1805.7,368.9,1805.7,367.3z M1756.7,453c0-0.9,1-1.9,1.2,0
		C1757.9,453.9,1756.9,454.9,1756.7,453z M1686.2,184.1c8-0.8,18.7-1.1,28.7,1.7c4.7,1.3,10.9,2.8,13.1,8.4
		c-8.3-0.4-15.2-10.6-23.9-5c-0.4-5.6-6.9-2.6-10.8-3.4C1693.9,182,1686.8,189.7,1686.2,184.1z M1677.8,184.1c1.2,0,2.4,0,3.6,0
		c1.4,0.3,3.4-0.3,3.6,1.7C1682.9,184.9,1677.9,187.9,1677.8,184.1z M1670.6,184.1C1678.3,182.2,1673.2,189.3,1670.6,184.1
		L1670.6,184.1z M1663.5,185.8c0.3-0.5,1.8,0.8,1.2,1.7C1664.3,188,1662.8,186.7,1663.5,185.8z M1658.7,185.8
		c0.3-0.5,1.8,0.8,1.2,1.7C1659.5,188,1658.1,186.7,1658.7,185.8z M1655.1,187.5c0.9,0.4,2.4,0,2.4,1.7
		C1656.5,188.8,1655.1,189.1,1655.1,187.5z M1218.9,251.4C1222.2,256.5,1215.3,246.8,1218.9,251.4L1218.9,251.4z M1155.6,175.7
		c-4,1.6-10.7,5.9-12-1.7C1147.3,175.1,1153.9,171.9,1155.6,175.7z M1146,180.8c2.7,1.2,9.3-3,8.4,3.4c-3.7,1.2-4.4-1.7-7.2-1.7
		C1143.1,183.8,1140.4,180,1146,180.8z M1140,180.8c0.3-0.5,1.8,0.8,1.2,1.7C1140.9,182.9,1139.4,181.7,1140,180.8z M1134.1,180.8
		c0.3-0.5,1.8,0.8,1.2,1.7C1134.9,182.9,1133.4,181.7,1134.1,180.8z M1131.7,174.1C1139.3,172.1,1134.3,179.2,1131.7,174.1
		L1131.7,174.1z M1124.5,180.8c0.9,0.4,2.4,0,2.4,1.7C1126,182.1,1124.5,182.4,1124.5,180.8z M1120.9,172.4c0.9,0.4,2.4,0,2.4,1.7
		C1122.4,173.7,1121,174,1120.9,172.4z M1097,172.4C1099.9,178,1093,168.3,1097,172.4L1097,172.4z M1081.5,170.7
		c0.3-0.5,1.8,0.8,1.2,1.7C1082.4,172.8,1080.9,171.6,1081.5,170.7z M1067.1,179.1c1.4,0.3,3.4-0.3,3.6,1.7
		C1069.3,180.5,1067.3,181.1,1067.1,179.1z M1063.6,170.7c1.6-0.2,8.7-0.3,4.8,1.7c-4.1-1.3-4.6,2.5-8.4,1.7
		C1058.9,170.6,1063.9,167.7,1063.6,170.7z M1046.8,170.7c3.2,0,6.4,0,9.6,0c1.3,3.5,1.3,3.6-1.2,1.7
		C1052.7,171.4,1047.4,174.5,1046.8,170.7z M1040.9,177.4c0.3-0.5,1.8,0.8,1.2,1.7C1041.7,179.6,1040.2,178.3,1040.9,177.4z
		 M987.1,179.1c1.2,0,2.4,0,3.6,0c0.9,0.4,2.4,0,2.4,1.7C991.3,179.9,986.9,182.7,987.1,179.1z M920.2,175.7
		C927.8,173.8,922.8,180.9,920.2,175.7L920.2,175.7z M915.4,199.3c0.3-0.5,1.8,0.8,1.2,1.7C916.2,201.4,914.8,200.1,915.4,199.3z
		 M910.6,197.6c0.3-0.5,1.8,0.8,1.2,1.7C911.5,199.7,910,198.5,910.6,197.6z M721.8,189.2c1.4,0.3,3.4-0.3,3.6,1.7
		C724,190.6,722,191.2,721.8,189.2z M718.2,189.2c0.9,0.4,2.4,0,2.4,1.7C719.7,190.5,718.2,190.8,718.2,189.2z M689.5,190.9
		c2.5,1,7.8-2.1,8.4,1.7C696,195.2,691.5,193,689.5,190.9z M685.9,192.5c0.3-0.5,1.8,0.8,1.2,1.7
		C686.8,194.7,685.3,193.4,685.9,192.5z M675.2,192.5c0.3-0.5,1.8,0.8,1.2,1.7C676.1,194.7,674.6,193.4,675.2,192.5z M438.6,187.5
		c3.1,0.7,6.6,0.9,8.4,3.4C443.6,190.6,438.7,192.3,438.6,187.5z M431.4,180.8c0.3-0.5,1.8,0.8,1.2,1.7
		C432.3,182.9,430.8,181.7,431.4,180.8z M427.8,177.4c0.3-0.5,1.8,0.8,1.2,1.7C428.7,179.6,427.2,178.3,427.8,177.4z M409.9,184.1
		c0.9,0.4,2.4,0,2.4,1.7C411.4,185.4,409.9,185.8,409.9,184.1z M92,177.4c0.3-0.5,1.8,0.8,1.2,1.7C92.9,179.6,91.4,178.3,92,177.4z
		 M88.4,177.4c0.9,0.4,2.4,0,2.4,1.7C89.9,178.7,88.5,179.1,88.4,177.4z M83.7,174.1c1.2,0,2.4,0,3.6,0c0.9,0.4,2.4,0,2.4,1.7
		C87.9,174.8,83.5,177.7,83.7,174.1z M81.3,174.1c0.3-0.5,1.8,0.8,1.2,1.7C82.1,176.2,80.7,174.9,81.3,174.1z M47.8,174.1
		c0.3-0.5,1.8,0.8,1.2,1.7C48.7,176.2,47.2,174.9,47.8,174.1z"/>
	<path class="st0" d="M597.5,148.9c-2.8,0-5.6,0-8.4,0c-0.2-4.2,1.8-5.3,3.6-6.7C590.9,149.2,599.4,141.8,597.5,148.9z"/>
	<path class="st0" d="M615.4,145.5c3.2,0,7-0.9,7.2,3.4C620.1,147.8,614.3,151.6,615.4,145.5z"/>
	<path class="st0" d="M645.3,172.4c0.1,2.6,3.1,1.3,2.4,5c-3.6,3.9-12.3,0.6-17.9,1.7c0.2-11.6,12.9,0.1,15.5-5
		C644.6,174.1,644,172.7,645.3,172.4z"/>
	<path class="st0" d="M669.2,192.5c-4.5-1.3-5.7,2.1-9.6,1.7C658.4,188.5,668.6,190.2,669.2,192.5z"/>
	<path class="st0" d="M500.7,162.3c0.9,0.4,2.4,0,2.4,1.7C502.2,163.6,500.7,163.9,500.7,162.3z"/>
	<path class="st0" d="M665.6,185.8c0.3-0.5,1.8,0.8,1.2,1.7C666.5,188,665,186.7,665.6,185.8z"/>
	<path class="st0" d="M401.5,162.3c-0.3,0.5-1.8-0.8-1.2-1.7C400.7,160.2,402.2,161.4,401.5,162.3z"/>
	<path class="st0" d="M143.4,169c3.4-1.4,7.1,0.3,11.9,0c8.3-0.5,18.7-4.5,26.3,0C168.4,170.9,156,173.4,143.4,169z"/>
	<path class="st0" d="M211.5,147.2c0,1.1,0,2.2,0,3.4c-0.8,0-1.6,0-2.4,0c0-1.1,0-2.2,0-3.4C209.9,147.2,210.7,147.2,211.5,147.2z"
		/>
	<path class="st0" d="M138.6,169c0.3-0.5,1.8,0.8,1.2,1.7C139.5,171.2,138,169.9,138.6,169z"/>
	<path class="st0" d="M517.4,153.9c-4.7-0.8-6.2,3.5-8.4-1.7C511.6,153.2,516.9,150.1,517.4,153.9z"/>
	<path class="st0" d="M184,132.1c-1.4-0.3-3.4,0.3-3.6-1.7C181.9,130.6,183.9,130.1,184,132.1z"/>
	<path class="st0" d="M185.2,167.3c0.3-0.5,1.8,0.8,1.2,1.7C186.1,169.5,184.6,168.2,185.2,167.3z"/>
	<path class="st0" d="M205.6,157.3C211.9,155.4,207,162.4,205.6,157.3L205.6,157.3z"/>
	<path class="st0" d="M513.9,195.9c-1.4-0.3-3.4,0.3-3.6-1.7C511.7,194.5,513.7,193.9,513.9,195.9z"/>
	<path class="st0" d="M187.6,167.3c1.2,0,2.4,0,3.6,0c0.9,0.4,2.4,0,2.4,1.7C191.9,168.1,187.4,171,187.6,167.3z"/>
	<path class="st0" d="M705.1,184.1c-1.3-0.2-1.9,2.4-2.4,0C702.7,182.4,704.8,182,705.1,184.1z"/>
	<path class="st0" d="M666.8,179.1c2.3,1.3,0.8,5,3.6,1.7c1.4,0.6,3,3,1.2,3.4c1.7,6.5,10.1,0.9,12,3.4c3.3,1.2,2.4-3.3,4.8-3.4
		c6.5-1.8,7.5,5.1,12,1.7c-2.1-8.9-8.6-1.3-15.5-3.4c0.2-2,2.2-1.4,3.6-1.7c0.4-2.9-0.9-3.2-2.4-3.4c0-1.6,1.5-1.3,2.4-1.7
		c1.2,0,0.9,2.1,1.2,3.4c3.8-2.6,5.3-0.6,9.6,0c0.2-1.4-0.5-1.6-1.2-1.7c0.8-2.6,4.8,4.4,9.6,1.7c-0.2-1.4-1.2-1.7-1.2-3.4
		c2.8,0,5.6,0,8.4,0c-7.6,4.3,2,3.3,7.2,3.4c-0.4-2.3-3-1.4-4.8-1.7c0.5-3.8,5.9-0.7,8.4-1.7c-2.9-6.8-8.8-1.7-13.1-1.7
		c-2.9,0-5.3-1.6-8.4-1.7c-6.4-0.1-13.7,3.4-17.9,0c-8.1,3.1-16,2.3-22.7,1.7c-2.7,1.8-7.2,1.1-9.6,3.4c-1.9-0.6,1-3-1.2-3.4
		c-2.7-0.9-1.7,3.2-3.6,3.4C652.5,181.3,661.2,178,666.8,179.1z M681.2,177.4c-1.4-0.3-3.4,0.3-3.6-1.7
		C679,176,681,175.5,681.2,177.4z M680,180.8c0.9,0.4,2.4,0,2.4,1.7C681.4,182.1,680,182.4,680,180.8z M674,179.1
		c2.7-0.5,4.5,0.4,4.8,3.4c-2.7-2.3-4.5,4.3-4.8,0C675.4,182.1,674.7,180.6,674,179.1z"/>
	<path class="st0" d="M708.6,177.4c0.3-0.5,1.8,0.8,1.2,1.7C709.5,179.6,708,178.3,708.6,177.4z"/>
	<path class="st0" d="M231.8,170.7c-0.3,0.5-1.8-0.8-1.2-1.7C231,168.6,232.5,169.8,231.8,170.7z"/>
	<path class="st0" d="M745.7,180.8c-9.6,3.1-16.3,0.4-26.3,1.7c-1.3,0.4-1.9,1.9-2.4,3.4c-2-2.8-8.7,1.1-8.4-5
		c5.1,3,11.4-1.6,19.1,0c-0.4-3.9-2.3-6.9,0-10.1c4.8-1.7,3.6,5,8.4,3.4c3.7,1.3,2.3-4.6,6-3.4c4.3,5.4,14.7-3.9,17.9,0
		c-5.5,6.2,8-0.2,6,6.7c-3.1-1.9-8.3-0.7-9.6-5c-2.3,6.7-5.6,2-8.4,6.7c0.3-5.4-3.6-1.5-6-1.7c-3.1-0.3-8.1-4.1-9.6,1.7
		C737.7,178.8,741.2,177.2,745.7,180.8z"/>
	<path class="st0" d="M707.5,185.8c-0.3,0.5-1.8-0.8-1.2-1.7C706.6,183.7,708.1,185,707.5,185.8z"/>
	<path class="st0" d="M363.3,162.3c-1.8,2.7-6.8,2.5-6-3.4C360.3,158.7,363.1,158.6,363.3,162.3z"/>
	<path class="st0" d="M212.7,148.9c1.4,0.3,3.4-0.3,3.6,1.7C214.9,150.3,212.9,150.8,212.7,148.9z"/>
	<path class="st0" d="M760,185.8c0.9,0.4,2.4,0,2.4,1.7C761.5,187.1,760.1,187.5,760,185.8z"/>
	<path class="st0" d="M751.7,179.1C758,177.3,753.1,184.2,751.7,179.1L751.7,179.1z"/>
	<path class="st0" d="M219.9,132.1c0-2.2-2.1-1.5-2.4-3.4C220.9,129.5,228.8,132.4,219.9,132.1z"/>
	<path class="st0" d="M228.3,127c0,0.9-1,1.9-1.2,0C227.1,126.1,228,125.1,228.3,127z"/>
	<path class="st0" d="M246.2,116.9c-4.7,0.3-14.7,1.4-20.3-1.7C233.7,116,241,111.3,246.2,116.9z"/>
	<path class="st0" d="M215.1,155.6c-0.3,0.5-1.8-0.8-1.2-1.7C214.3,153.4,215.7,154.7,215.1,155.6z"/>
	<path class="st0" d="M572.4,153.9C580.1,152,575,159,572.4,153.9L572.4,153.9z"/>
	<path class="st0" d="M1325.3,180.8c-0.3,0.5-1.8-0.8-1.2-1.7C1324.4,178.6,1325.9,179.9,1325.3,180.8z"/>
	<path class="st0" d="M353.7,152.2c1.4,0.3,3.4-0.3,3.6,1.7C355.9,153.6,353.9,154.2,353.7,152.2z"/>
</g>
</svg>
